<?xml version="1.0" encoding="UTF-8" standalone="no"?>
<!DOCTYPE svg PUBLIC "-//W3C//DTD SVG 1.0//EN" "http://www.w3.org/TR/2001/PR-SVG-20010719/DTD/svg10.dtd">
<svg width="23cm" height="13cm" viewBox="282 92 453 241" xmlns="http://www.w3.org/2000/svg" xmlns:xlink="http://www.w3.org/1999/xlink">
  <rect style="fill: none; fill-opacity:0; stroke-width: 2; stroke-dasharray: 20; stroke: #000000" x="283.673" y="96.1613" width="235.463" height="234.273"/>
  <g>
    <polygon style="fill: #ffffff" points="337.276,143.29 481.297,143.29 467.126,182.224 323.106,182.224 "/>
    <polygon style="fill: none; fill-opacity:0; stroke-width: 2; stroke: #000000" points="337.276,143.29 481.297,143.29 467.126,182.224 323.106,182.224 "/>
    <text font-size="13.5467" style="fill: #000000;text-anchor:middle;font-family:monospace;font-style:normal;font-weight:normal" x="402.201" y="166.89">
      <tspan x="402.201" y="166.89">input name</tspan>
    </text>
  </g>
  <g>
    <line style="fill: none; fill-opacity:0; stroke-width: 2; stroke: #000000" x1="402.407" y1="183.217" x2="402.587" y2="201.197"/>
    <polygon style="fill: #000000" points="402.663,208.697 397.562,198.748 402.587,201.197 407.562,198.647 "/>
    <polygon style="fill: none; fill-opacity:0; stroke-width: 2; stroke: #000000" points="402.663,208.697 397.562,198.748 402.587,201.197 407.562,198.647 "/>
  </g>
  <g>
    <rect style="fill: #ffffff" x="298.165" y="211.926" width="209.45" height="38.9333"/>
    <rect style="fill: none; fill-opacity:0; stroke-width: 2; stroke: #000000" x="298.165" y="211.926" width="209.45" height="38.9333"/>
    <text font-size="13.5467" style="fill: #000000;text-anchor:middle;font-family:monospace;font-style:normal;font-weight:normal" x="402.89" y="235.526">
      <tspan x="402.89" y="235.526">reply = "Hello " + name</tspan>
    </text>
  </g>
  <g>
    <polygon style="fill: #ffffff" points="339.345,281.211 465.308,281.211 451.138,320.144 325.174,320.144 "/>
    <polygon style="fill: none; fill-opacity:0; stroke-width: 2; stroke: #000000" points="339.345,281.211 465.308,281.211 451.138,320.144 325.174,320.144 "/>
    <text font-size="13.5467" style="fill: #000000;text-anchor:middle;font-family:monospace;font-style:normal;font-weight:normal" x="395.241" y="304.811">
      <tspan x="395.241" y="304.811">output reply</tspan>
    </text>
  </g>
  <g>
    <line style="fill: none; fill-opacity:0; stroke-width: 2; stroke: #000000" x1="402.659" y1="251.85" x2="402.437" y2="271.475"/>
    <polygon style="fill: #000000" points="402.352,278.975 397.465,268.919 402.437,271.475 407.465,269.032 "/>
    <polygon style="fill: none; fill-opacity:0; stroke-width: 2; stroke: #000000" points="402.352,278.975 397.465,268.919 402.437,271.475 407.465,269.032 "/>
  </g>
  <text font-size="13.5467" style="fill: #000000;text-anchor:start;font-family:monospace;font-style:normal;font-weight:normal" x="366.322" y="119.945">
    <tspan x="366.322" y="119.945">Flowchart</tspan>
  </text>
  <g>
    <polygon style="fill: #ffffff" points="528.649,93.7829 722.099,93.7829 734.099,105.783 734.099,331.916 528.649,331.916 "/>
    <polygon style="fill: none; fill-opacity:0; stroke-width: 2; stroke: #000000" points="528.649,93.7829 722.099,93.7829 734.099,105.783 734.099,331.916 528.649,331.916 "/>
    <polyline style="fill: none; fill-opacity:0; stroke-width: 1; stroke: #000000" points="722.099,93.7829 722.099,105.783 734.099,105.783 "/>
    <text font-size="13.5465" style="fill: #000000;text-anchor:start;font-family:monospace;font-style:normal;font-weight:normal" x="535.649" y="119.383">
      <tspan x="535.649" y="119.383">Pseudocode </tspan>
      <tspan x="535.649" y="136.316"></tspan>
      <tspan x="535.649" y="153.25"></tspan>
      <tspan x="535.649" y="170.183">name = input()</tspan>
      <tspan x="535.649" y="187.116"></tspan>
      <tspan x="535.649" y="204.05"></tspan>
      <tspan x="535.649" y="220.983"></tspan>
      <tspan x="535.649" y="237.916">reply = "Hello " + name</tspan>
      <tspan x="535.649" y="254.85"></tspan>
      <tspan x="535.649" y="271.783"></tspan>
      <tspan x="535.649" y="288.716"></tspan>
      <tspan x="535.649" y="305.65">print( reply )</tspan>
      <tspan x="535.649" y="322.583"></tspan>
    </text>
  </g>
  <text font-size="12.7998" style="fill: #000000;text-anchor:start;font-family:sans-serif;font-style:normal;font-weight:normal" x="631.374" y="212.85">
    <tspan x="631.374" y="212.85"></tspan>
  </text>
  <text font-size="12.7998" style="fill: #000000;text-anchor:start;font-family:sans-serif;font-style:normal;font-weight:normal" x="631.374" y="212.85">
    <tspan x="631.374" y="212.85"></tspan>
  </text>
  <text font-size="12.7998" style="fill: #000000;text-anchor:start;font-family:sans-serif;font-style:normal;font-weight:normal" x="631.374" y="212.85">
    <tspan x="631.374" y="212.85"></tspan>
  </text>
</svg>
