<?xml version="1.0" encoding="UTF-8" standalone="no"?>
<!DOCTYPE svg PUBLIC "-//W3C//DTD SVG 1.0//EN" "http://www.w3.org/TR/2001/PR-SVG-20010719/DTD/svg10.dtd">
<svg width="27cm" height="19cm" viewBox="378 238 523 363" xmlns="http://www.w3.org/2000/svg" xmlns:xlink="http://www.w3.org/1999/xlink">
  <g>
    <rect style="fill: #ffffff" x="680" y="240" width="220" height="40"/>
    <rect style="fill: none; fill-opacity:0; stroke-width: 2; stroke: #000000" x="680" y="240" width="220" height="40"/>
    <line style="fill: none; fill-opacity:0; stroke-width: 2; stroke: #000000" x1="702" y1="240" x2="702" y2="280"/>
    <line style="fill: none; fill-opacity:0; stroke-width: 2; stroke: #000000" x1="878" y1="240" x2="878" y2="280"/>
    <text font-size="13.5467" style="fill: #000000;text-anchor:middle;font-family:monospace;font-style:normal;font-weight:normal" x="790" y="264.233">
      <tspan x="790" y="264.233">Insert Cash</tspan>
    </text>
  </g>
  <g>
    <rect style="fill: #ffffff" x="680" y="320" width="220" height="40"/>
    <rect style="fill: none; fill-opacity:0; stroke-width: 2; stroke: #000000" x="680" y="320" width="220" height="40"/>
    <line style="fill: none; fill-opacity:0; stroke-width: 2; stroke: #000000" x1="702" y1="320" x2="702" y2="360"/>
    <line style="fill: none; fill-opacity:0; stroke-width: 2; stroke: #000000" x1="878" y1="320" x2="878" y2="360"/>
    <text font-size="13.5467" style="fill: #000000;text-anchor:middle;font-family:monospace;font-style:normal;font-weight:normal" x="790" y="344.233">
      <tspan x="790" y="344.233">Select an Item</tspan>
    </text>
  </g>
  <g>
    <rect style="fill: #ffffff" x="680" y="400" width="220" height="40"/>
    <rect style="fill: none; fill-opacity:0; stroke-width: 2; stroke: #000000" x="680" y="400" width="220" height="40"/>
    <line style="fill: none; fill-opacity:0; stroke-width: 2; stroke: #000000" x1="702" y1="400" x2="702" y2="440"/>
    <line style="fill: none; fill-opacity:0; stroke-width: 2; stroke: #000000" x1="878" y1="400" x2="878" y2="440"/>
    <text font-size="13.5467" style="fill: #000000;text-anchor:middle;font-family:monospace;font-style:normal;font-weight:normal" x="790" y="424.233">
      <tspan x="790" y="424.233">Validate Purchase</tspan>
    </text>
  </g>
  <g>
    <rect style="fill: #ffffff" x="680" y="480" width="220" height="40"/>
    <rect style="fill: none; fill-opacity:0; stroke-width: 2; stroke: #000000" x="680" y="480" width="220" height="40"/>
    <line style="fill: none; fill-opacity:0; stroke-width: 2; stroke: #000000" x1="702" y1="480" x2="702" y2="520"/>
    <line style="fill: none; fill-opacity:0; stroke-width: 2; stroke: #000000" x1="878" y1="480" x2="878" y2="520"/>
    <text font-size="13.5467" style="fill: #000000;text-anchor:middle;font-family:monospace;font-style:normal;font-weight:normal" x="790" y="504.233">
      <tspan x="790" y="504.233">Vend item</tspan>
    </text>
  </g>
  <g>
    <rect style="fill: #ffffff" x="680" y="560" width="220" height="40"/>
    <rect style="fill: none; fill-opacity:0; stroke-width: 2; stroke: #000000" x="680" y="560" width="220" height="40"/>
    <line style="fill: none; fill-opacity:0; stroke-width: 2; stroke: #000000" x1="702" y1="560" x2="702" y2="600"/>
    <line style="fill: none; fill-opacity:0; stroke-width: 2; stroke: #000000" x1="878" y1="560" x2="878" y2="600"/>
    <text font-size="13.5467" style="fill: #000000;text-anchor:middle;font-family:monospace;font-style:normal;font-weight:normal" x="790" y="584.233">
      <tspan x="790" y="584.233">Vend Change</tspan>
    </text>
  </g>
  <text font-size="12.7998" style="fill: #000000;text-anchor:start;font-family:sans-serif;font-style:normal;font-weight:normal" x="790" y="500">
    <tspan x="790" y="500"></tspan>
  </text>
  <g>
    <line style="fill: none; fill-opacity:0; stroke-width: 2; stroke: #000000" x1="790" y1="280" x2="790" y2="310.264"/>
    <polygon style="fill: #000000" points="790,317.764 785,307.764 790,310.264 795,307.764 "/>
    <polygon style="fill: none; fill-opacity:0; stroke-width: 2; stroke: #000000" points="790,317.764 785,307.764 790,310.264 795,307.764 "/>
  </g>
  <g>
    <line style="fill: none; fill-opacity:0; stroke-width: 2; stroke: #000000" x1="790" y1="360.991" x2="790" y2="390.264"/>
    <polygon style="fill: #000000" points="790,397.764 785,387.764 790,390.264 795,387.764 "/>
    <polygon style="fill: none; fill-opacity:0; stroke-width: 2; stroke: #000000" points="790,397.764 785,387.764 790,390.264 795,387.764 "/>
  </g>
  <g>
    <rect style="fill: #ffffff" x="380" y="400" width="213" height="40"/>
    <rect style="fill: none; fill-opacity:0; stroke-width: 2; stroke: #000000" x="380" y="400" width="213" height="40"/>
    <text font-size="13.5467" style="fill: #000000;text-anchor:middle;font-family:monospace;font-style:normal;font-weight:normal" x="486.5" y="424.133">
      <tspan x="486.5" y="424.133">Vending Machine</tspan>
    </text>
  </g>
  <g>
    <line style="fill: none; fill-opacity:0; stroke-width: 2; stroke: #000000" x1="790" y1="440" x2="790" y2="470.264"/>
    <polygon style="fill: #000000" points="790,477.764 785,467.764 790,470.264 795,467.764 "/>
    <polygon style="fill: none; fill-opacity:0; stroke-width: 2; stroke: #000000" points="790,477.764 785,467.764 790,470.264 795,467.764 "/>
  </g>
  <g>
    <line style="fill: none; fill-opacity:0; stroke-width: 2; stroke: #000000" x1="790" y1="520" x2="790" y2="550.264"/>
    <polygon style="fill: #000000" points="790,557.764 785,547.764 790,550.264 795,547.764 "/>
    <polygon style="fill: none; fill-opacity:0; stroke-width: 2; stroke: #000000" points="790,557.764 785,547.764 790,550.264 795,547.764 "/>
  </g>
  <g>
    <polyline style="fill: none; fill-opacity:0; stroke-width: 2; stroke: #000000" points="640,420 640,420 640,580 670.264,580 "/>
    <polygon style="fill: #000000" points="677.764,580 667.764,585 670.264,580 667.764,575 "/>
    <polygon style="fill: none; fill-opacity:0; stroke-width: 2; stroke: #000000" points="677.764,580 667.764,585 670.264,580 667.764,575 "/>
  </g>
  <g>
    <polyline style="fill: none; fill-opacity:0; stroke-width: 2; stroke: #000000" points="640,420 640,420 640,260 670.264,260 "/>
    <polygon style="fill: #000000" points="677.764,260 667.764,265 670.264,260 667.764,255 "/>
    <polygon style="fill: none; fill-opacity:0; stroke-width: 2; stroke: #000000" points="677.764,260 667.764,265 670.264,260 667.764,255 "/>
  </g>
  <g>
    <line style="fill: none; fill-opacity:0; stroke-width: 2; stroke: #000000" x1="593" y1="420" x2="640" y2="420"/>
    <line style="fill: none; fill-opacity:0; stroke-width: 2; stroke: #000000" x1="630" y1="420" x2="640" y2="425"/>
    <line style="fill: none; fill-opacity:0; stroke-width: 2; stroke: #000000" x1="630" y1="420" x2="640" y2="415"/>
  </g>
  <g>
    <line style="fill: none; fill-opacity:0; stroke-width: 2; stroke: #000000" x1="640" y1="340" x2="670.264" y2="340"/>
    <polygon style="fill: #000000" points="677.764,340 667.764,345 670.264,340 667.764,335 "/>
    <polygon style="fill: none; fill-opacity:0; stroke-width: 2; stroke: #000000" points="677.764,340 667.764,345 670.264,340 667.764,335 "/>
  </g>
  <g>
    <line style="fill: none; fill-opacity:0; stroke-width: 2; stroke: #000000" x1="640" y1="420" x2="670.264" y2="420"/>
    <polygon style="fill: #000000" points="677.764,420 667.764,425 670.264,420 667.764,415 "/>
    <polygon style="fill: none; fill-opacity:0; stroke-width: 2; stroke: #000000" points="677.764,420 667.764,425 670.264,420 667.764,415 "/>
  </g>
  <g>
    <line style="fill: none; fill-opacity:0; stroke-width: 2; stroke: #000000" x1="640" y1="500" x2="670.264" y2="500"/>
    <polygon style="fill: #000000" points="677.764,500 667.764,505 670.264,500 667.764,495 "/>
    <polygon style="fill: none; fill-opacity:0; stroke-width: 2; stroke: #000000" points="677.764,500 667.764,505 670.264,500 667.764,495 "/>
  </g>
</svg>
