<?xml version="1.0" encoding="UTF-8" standalone="no"?>
<!DOCTYPE svg PUBLIC "-//W3C//DTD SVG 1.0//EN" "http://www.w3.org/TR/2001/PR-SVG-20010719/DTD/svg10.dtd">
<svg width="16cm" height="11cm" viewBox="310 279 303 214" xmlns="http://www.w3.org/2000/svg" xmlns:xlink="http://www.w3.org/1999/xlink">
  <g>
    <polygon style="fill: #ffffff" points="440.813,396.974 527.676,440.406 440.813,483.837 353.95,440.406 "/>
    <polygon style="fill: none; fill-opacity:0; stroke-width: 2; stroke: #000000" points="440.813,396.974 527.676,440.406 440.813,483.837 353.95,440.406 "/>
    <text font-size="12.8" style="fill: #000000;text-anchor:middle;font-family:sans-serif;font-style:normal;font-weight:normal" x="440.813" y="445.206">
      <tspan x="440.813" y="445.206">while expression</tspan>
    </text>
  </g>
  <g>
    <rect style="fill: #ffffff" x="471.818" y="349.462" width="139.8" height="38"/>
    <rect style="fill: none; fill-opacity:0; stroke-width: 2; stroke: #000000" x="471.818" y="349.462" width="139.8" height="38"/>
    <text font-size="12.8" style="fill: #000000;text-anchor:middle;font-family:sans-serif;font-style:normal;font-weight:normal" x="541.718" y="373.262">
      <tspan x="541.718" y="373.262">run this codeblock</tspan>
    </text>
  </g>
  <g>
    <polyline style="fill: none; fill-opacity:0; stroke-width: 2; stroke: #000000" points="527.676,440.406 527.676,440 541.718,440 541.718,397.198 "/>
    <polygon style="fill: #000000" points="541.718,389.698 546.718,399.698 541.718,397.198 536.718,399.698 "/>
    <polygon style="fill: none; fill-opacity:0; stroke-width: 2; stroke: #000000" points="541.718,389.698 546.718,399.698 541.718,397.198 536.718,399.698 "/>
  </g>
  <text font-size="13.5467" style="fill: #000000;text-anchor:start;font-family:monospace;font-style:normal;font-weight:700" x="502.096" y="418.378">
    <tspan x="502.096" y="418.378">True</tspan>
  </text>
  <text font-size="13.5467" style="fill: #000000;text-anchor:start;font-family:monospace;font-style:normal;font-weight:700" x="341.093" y="418.698">
    <tspan x="341.093" y="418.698">False</tspan>
  </text>
  <text font-size="12.8" style="fill: #000000;text-anchor:start;font-family:sans-serif;font-style:normal;font-weight:normal" x="811.624" y="580.666">
    <tspan x="811.624" y="580.666"></tspan>
  </text>
  <text font-size="12.8" style="fill: #000000;text-anchor:start;font-family:sans-serif;font-style:normal;font-weight:normal" x="811.624" y="580.666">
    <tspan x="811.624" y="580.666"></tspan>
  </text>
  <text font-size="13.5467" style="fill: #000000;text-anchor:start;font-family:monospace;font-style:normal;font-weight:700" x="341.263" y="295.506">
    <tspan x="341.263" y="295.506">Loops</tspan>
  </text>
  <g>
    <path style="fill: #ffffff" d="M 422.14 280.818 L 460.14,280.818 C 465.387,280.818 469.64,285.743 469.64,291.818 C 469.64,297.893 465.387,302.818 460.14,302.818 L 422.14,302.818 C 416.893,302.818 412.64,297.893 412.64,291.818 C 412.64,285.743 416.893,280.818 422.14,280.818z"/>
    <path style="fill: none; fill-opacity:0; stroke-width: 2; stroke: #000000" d="M 422.14 280.818 L 460.14,280.818 C 465.387,280.818 469.64,285.743 469.64,291.818 C 469.64,297.893 465.387,302.818 460.14,302.818 L 422.14,302.818 C 416.893,302.818 412.64,297.893 412.64,291.818 C 412.64,285.743 416.893,280.818 422.14,280.818"/>
    <text font-size="12.8" style="fill: #000000;text-anchor:middle;font-family:sans-serif;font-style:normal;font-weight:normal" x="441.14" y="296.618">
      <tspan x="441.14" y="296.618"></tspan>
    </text>
  </g>
  <g>
    <line style="fill: none; fill-opacity:0; stroke-width: 2; stroke: #000000" x1="441.14" y1="302.818" x2="440.848" y2="387.238"/>
    <polygon style="fill: #000000" points="440.822,394.738 435.856,384.721 440.848,387.238 445.856,384.755 "/>
    <polygon style="fill: none; fill-opacity:0; stroke-width: 2; stroke: #000000" points="440.822,394.738 435.856,384.721 440.848,387.238 445.856,384.755 "/>
  </g>
  <g>
    <path style="fill: #000000" d="M 320.526 470.582 L 358.526,470.582 C 363.773,470.582 368.026,475.507 368.026,481.582 C 368.026,487.657 363.773,492.582 358.526,492.582 L 320.526,492.582 C 315.279,492.582 311.026,487.657 311.026,481.582 C 311.026,475.507 315.279,470.582 320.526,470.582z"/>
    <path style="fill: none; fill-opacity:0; stroke-width: 2; stroke: #000000" d="M 320.526 470.582 L 358.526,470.582 C 363.773,470.582 368.026,475.507 368.026,481.582 C 368.026,487.657 363.773,492.582 358.526,492.582 L 320.526,492.582 C 315.279,492.582 311.026,487.657 311.026,481.582 C 311.026,475.507 315.279,470.582 320.526,470.582"/>
    <text font-size="12.8" style="fill: #000000;text-anchor:middle;font-family:sans-serif;font-style:normal;font-weight:normal" x="339.526" y="486.382">
      <tspan x="339.526" y="486.382"></tspan>
    </text>
  </g>
  <g>
    <polyline style="fill: none; fill-opacity:0; stroke-width: 2; stroke: #000000" points="353.95,440.406 353.95,440.75 339.526,440.75 339.526,460.846 "/>
    <polygon style="fill: #000000" points="339.526,468.346 334.526,458.346 339.526,460.846 344.526,458.346 "/>
    <polygon style="fill: none; fill-opacity:0; stroke-width: 2; stroke: #000000" points="339.526,468.346 334.526,458.346 339.526,460.846 344.526,458.346 "/>
  </g>
  <polyline style="fill: none; fill-opacity:0; stroke-width: 2; stroke: #000000" points="541.718,349.462 541.718,322.993 441.14,322.993 441.14,302.818 "/>
</svg>
